<?xml version="1.0" encoding="utf-8"?>
<!-- Generator: Adobe Illustrator 18.1.0, SVG Export Plug-In . SVG Version: 6.00 Build 0)  -->
<svg version="1.1" id="Layer_1" xmlns="http://www.w3.org/2000/svg" xmlns:xlink="http://www.w3.org/1999/xlink" x="0px" y="0px"
	 viewBox="0 0 300 300" enable-background="new 0 0 300 300" xml:space="preserve">
<g>
	<path fill="none" d="M166.4,261.2c16.4-5.4,31.1-14.5,43.2-26.4C197.6,246.7,182.8,255.8,166.4,261.2
		C166.4,261.2,166.4,261.2,166.4,261.2z"/>
	<path fill="none" d="M200,206.8v-7.7c0-5.1-4.1-9.2-9.2-9.2c-2.5,0-4.8,1-6.5,2.7c-1.7,1.7-3.3,4.1-3.3,6.5v7.9
		C186,207,195,206.9,200,206.8z"/>
	<path fill="none" d="M163,191.6v-10.4c0-6.8-5.7-12.4-12.5-12.4c-6.8,0-12.5,5.6-12.5,12.4v10.6C145,191.8,156,191.7,163,191.6z"/>
	<path fill="#0193D7" d="M209.6,234.8c2.3-15.2,1.7-28.2,1.7-28.2s-4.2,0.1-6.2,0.1v-7.7c0-6.7-6.2-12.1-12.9-12.1
		c-3.2,0-6.8,1.3-9.1,3.5c-2.3,2.3-4.1,5.3-4.1,8.6v7.9c-1.9,0-1.5,0-2,0c-0.2,13.8-2.1,36.5-10.6,54.3
		C182.8,255.8,197.6,246.7,209.6,234.8z M181,199.1c0-2.5,1.5-4.8,3.3-6.5c1.7-1.7,4-2.7,6.5-2.7c5.1,0,9.2,4.1,9.2,9.2v7.7
		c-5,0.1-14,0.2-19,0.2V199.1z"/>
	<path fill="#0193D7" d="M131.8,45.3c20.4,0,39.5,5.5,55.9,15.1C142.2,78.8,62.7,75.7,62.7,75.7c70.4,16.3,125,1.1,140.7-4.2
		c9.7,8.2,17.9,18,24.3,29c-72.6,27.6-179.5,13.9-180,14.3c86.3,29.5,167.7,7.7,187.5,1.5c0.6,1.6,1.2,3.1,1.7,4.7l-7.9,0l20.7,28.3
		l20.4-28.4l-7.9,0c-15.1-50.5-61.8-87.4-117.2-87.4C96.4,33.7,54.4,62,34.7,103C53.4,68.6,89.9,45.3,131.8,45.3z"/>
	<path fill="#006DB6" d="M229,190.1l8.2,0c-5.5,17.1-15.1,32.4-27.6,44.7c-12,11.9-26.8,21-43.2,26.4c0,0,0,0,0,0
		c8.5-17.8,10.6-40.5,10.6-54.3c0,0,0,0,0,0c0-9.3-0.1-15.5-0.1-15.5s-1.9,0.1-8.9,0.2v-10.3c0-9-8.5-16.3-17.5-16.3
		c-9,0-17.5,7.3-17.5,16.3v10.6c-5,0-7.1-0.2-7.2-0.4c-11.3,39.2-33.3,58.4-41.8,64.6c-21-10.1-38.3-26.5-49.4-46.8
		c19.8,41,61.7,69.3,110.3,69.3c55.7,0,102.7-37.3,117.5-88.2l7.7,0l-20.4-28.4L229,190.1z M138,181.2c0-6.8,5.7-12.4,12.5-12.4
		c6.8,0,12.5,5.6,12.5,12.4v10.4c-7,0.1-18,0.2-25,0.2V181.2z"/>
</g>
</svg>
